<svg xmlns="http://www.w3.org/2000/svg" width="1280" height="420" viewBox="0 0 1280 420" role="img" aria-labelledby="title desc">
  <title id="title">Big Stick repository banner</title>
  <desc id="desc">Public-safe banner for Big Stick with abstract command board and redaction motifs.</desc>
  <rect width="1280" height="420" fill="#111318"/>
  <rect x="42" y="42" width="1196" height="336" rx="20" fill="#f3ead8"/>
  <rect x="82" y="82" width="210" height="256" rx="14" fill="#20242c"/>
  <rect x="116" y="116" width="142" height="18" fill="#d6b15d"/>
  <rect x="116" y="162" width="96" height="14" fill="#9f2d27"/>
  <rect x="116" y="196" width="142" height="14" fill="#f3ead8"/>
  <rect x="116" y="230" width="118" height="14" fill="#f3ead8"/>
  <rect x="116" y="264" width="76" height="14" fill="#9f2d27"/>
  <text x="350" y="168" font-family="Arial, sans-serif" font-size="64" font-weight="800" fill="#111318">Big Stick</text>
  <text x="354" y="220" font-family="Arial, sans-serif" font-size="24" fill="#34363d">Public-record and evidence command surface</text>
  <text x="354" y="276" font-family="Arial, sans-serif" font-size="20" fill="#9f2d27">Public surface. Private engine. Receipts always.</text>
  <g fill="none" stroke="#34363d" stroke-width="2" opacity="0.7">
    <path d="M910 96 L1120 96 L1120 320 L910 320 Z"/>
    <path d="M940 138 H1090"/>
    <path d="M940 184 H1040"/>
    <path d="M940 230 H1080"/>
    <path d="M940 276 H1010"/>
  </g>
</svg>

