<svg xmlns="http://www.w3.org/2000/svg" width="1600" height="900" viewBox="0 0 1600 900" role="img" aria-labelledby="title desc">
  <title id="title">Big Stick WordPress featured image</title>
  <desc id="desc">Abstract command-board artwork for the Big Stick public project page, with public/private review lanes and receipt motifs.</desc>
  <rect width="1600" height="900" fill="#111318"/>
  <rect x="70" y="70" width="1460" height="760" rx="28" fill="#f3ead8"/>
  <rect x="120" y="130" width="390" height="640" rx="18" fill="#171513"/>
  <rect x="166" y="190" width="250" height="32" rx="8" fill="#9f2d27"/>
  <rect x="166" y="270" width="286" height="22" rx="8" fill="#f3ead8" opacity=".82"/>
  <rect x="166" y="326" width="230" height="22" rx="8" fill="#f3ead8" opacity=".62"/>
  <rect x="166" y="430" width="286" height="150" rx="14" fill="#f3ead8" opacity=".12"/>
  <rect x="590" y="130" width="820" height="150" rx="18" fill="#ffffff" stroke="#34363d" stroke-opacity=".28" stroke-width="3"/>
  <text x="640" y="222" font-family="Arial, sans-serif" font-size="62" font-weight="800" fill="#111318">Big Stick</text>
  <text x="642" y="260" font-family="Arial, sans-serif" font-size="24" fill="#414042">Public surface. Private engine. Receipts always.</text>
  <g fill="#ffffff" stroke="#34363d" stroke-opacity=".28" stroke-width="3">
    <rect x="590" y="350" width="245" height="220" rx="18"/>
    <rect x="878" y="350" width="245" height="220" rx="18"/>
    <rect x="1165" y="350" width="245" height="220" rx="18"/>
    <rect x="590" y="635" width="820" height="135" rx="18"/>
  </g>
  <g fill="#d6b15d">
    <circle cx="685" cy="438" r="28"/>
    <circle cx="973" cy="438" r="28"/>
    <circle cx="1260" cy="438" r="28"/>
  </g>
  <text x="640" y="520" font-family="Arial, sans-serif" font-size="24" fill="#111318">Review</text>
  <text x="928" y="520" font-family="Arial, sans-serif" font-size="24" fill="#111318">Redact</text>
  <text x="1215" y="520" font-family="Arial, sans-serif" font-size="24" fill="#111318">Publish</text>
  <path d="M650 710h640" stroke="#9f2d27" stroke-width="18" stroke-linecap="round"/>
  <path d="M650 745h430" stroke="#d6b15d" stroke-width="12" stroke-linecap="round"/>
</svg>
